<svg xmlns="http://www.w3.org/2000/svg" viewBox="0 0 64 64" fill="none">
  <defs>
    <linearGradient id="g" x1="0" y1="0" x2="64" y2="64" gradientUnits="userSpaceOnUse">
      <stop offset="0" stop-color="#3182CE"/>
      <stop offset="1" stop-color="#805AD5"/>
    </linearGradient>
  </defs>
  <rect width="64" height="64" rx="14" fill="url(#g)"/>
  <path
    d="M22 24c0-4 3-7 8-7h5a8 8 0 0 1 8 8h-6a3 3 0 0 0-3-3h-4a3 3 0 0 0-3 3c0 1.6 1.2 2.6 3.5 3.2l5 1.4c5.5 1.5 8 4.4 8 9.4 0 5.6-4.5 8.6-10.5 8.6h-5a8.5 8.5 0 0 1-8.5-8.5h6a3.5 3.5 0 0 0 3.5 3.5h4c2 0 3.5-1.1 3.5-2.9 0-1.7-1.2-2.6-3.7-3.3l-4.7-1.3c-5.6-1.5-8.1-4.5-8.1-9.1Z"
    fill="#fff"
  />
</svg>
